<svg version="1.1" xmlns="http://www.w3.org/2000/svg" xmlns:xlink="http://www.w3.org/1999/xlink" x="0px" y="0px" viewBox="0 0 1000 1000" enable-background="new 0 0 1000 1000" xml:space="preserve">
<path fill="#ffffff" d="M785.5,435.7v-35.5c0-40.4-32-73.4-71.3-73.4c-13.7,0-26.2,4.2-37.1,10.9V191.3c0-40.4-31.6-73.3-70.4-73.3c-12.9,0-25,3.8-35.4,10.3V83.5c0-40.4-32-73.5-71.3-73.5c-36.4,0-66.3,28.4-70.4,64.8C418.7,68.2,406.3,64,392.8,64c-39.3,0-71.2,32.9-71.2,73.4v41.8c-10.7-6.5-22.9-10.5-36.1-10.5c-39.3,0-71.2,32.9-71.2,73.4V380v190v43.4c0,117.4,73.1,206.9,186.1,239.7c-4.3,12.7-7.1,24.1-7.1,33.2c0,57.3,46.4,103.7,103.7,103.7c57.3,0,103.7-46.4,103.7-103.7c0-8.6-2.5-19.6-6.6-31.6c116.2-31.4,191.5-121.9,191.5-241.2V437.3L785.5,435.7z M581.2,821.9c-30-65.8-84-145.3-84-145.3s-53.2,78.3-83.4,143.9c-51.1-14.4-92.9-41.5-121.6-78.3l208.9-88c8.9-3.8,13.1-14,9.3-22.9c-3.7-8.9-13.9-13-22.9-9.4l-214.3,90.3c-15.3-29.1-23.8-62.3-23.8-98.7v-43.4v-190V242.2c0-21.2,16.3-38.4,36.3-38.4c19.7,0,35.5,16.7,36,37.2v175l0.2,1v41.4c0,9.6,7.9,17.5,17.5,17.5c9.7,0,17.5-7.9,17.5-17.5V242.2l-0.2-2.2V137.4c0-21.2,16.4-38.5,36.3-38.5c19.2,0,34.5,16,35.8,35.9v288.4l0.5,2.3v28.1c0,9.6,7.9,17.5,17.5,17.5c9.6,0,17.5-7.9,17.5-17.5V137.3l-0.5-5V83.3c0-21.1,16.2-38.5,36.3-38.5c20,0,36.3,17.3,36.3,38.5v107.8v196.4v69.2c0,9.7,7.8,17.5,17.5,17.5c9.6,0,17.5-7.8,17.5-17.5v-69.2V191.1c0-21.1,15.9-38.4,35.4-38.4c19.6,0,35.5,17.2,35.5,38.4V519c0,9.6,7.8,17.5,17.5,17.5c9.6,0,17.5-7.9,17.5-17.5v-12.3l0.8-3.9V400.2c0-21.2,16.2-38.4,36.3-38.4c20,0,36.3,17.2,36.3,38.4v97.4l0.3,1.6v114.2C750.8,716.9,684.1,795.2,581.2,821.9z"/>
</svg>